<?xml version="1.0" standalone="no"?>
<!DOCTYPE svg PUBLIC "-//W3C//DTD SVG 20010904//EN"
 "http://www.w3.org/TR/2001/REC-SVG-20010904/DTD/svg10.dtd">
<svg version="1.0" xmlns="http://www.w3.org/2000/svg"
 width="549.000000pt" height="549.000000pt" viewBox="0 0 549.000000 549.000000"
 preserveAspectRatio="xMidYMid meet">
<metadata>
Created by potrace 1.11, written by Peter Selinger 2001-2013
</metadata>
<g transform="translate(0.000000,549.000000) scale(0.100000,-0.100000)"
fill="#000000" stroke="none">
<path d="M10 2745 l0 -2735 2735 0 2735 0 0 2735 0 2735 -2735 0 -2735 0 0
-2735z m2990 285 l0 -280 60 0 60 0 0 -80 0 -80 -60 0 -60 0 0 -100 0 -100
-95 0 -94 0 -3 98 -3 97 -222 3 -221 2 -16 67 c-12 53 -12 71 -3 83 7 8 119
140 251 293 l239 277 83 0 84 0 0 -280z m-760 180 l0 -90 -245 0 -245 0 0
-100 0 -100 215 0 215 0 0 -90 0 -90 -215 0 -215 0 0 -175 0 -175 -100 0 -100
0 0 455 0 455 345 0 345 0 0 -90z m1584 64 c117 -46 189 -151 190 -279 1 -97
-18 -156 -71 -215 -75 -84 -183 -119 -365 -120 l-78 0 0 -135 0 -135 -100 0
-100 0 0 456 0 456 238 -4 c205 -4 244 -7 286 -24z"/>
<path d="M2688 2893 l-116 -138 115 -3 c64 -1 117 -1 120 1 2 2 2 66 1 141
l-3 137 -117 -138z"/>
<path d="M3500 2981 l0 -141 95 0 c111 0 164 17 197 63 27 38 30 113 5 151
-34 51 -62 61 -184 65 l-113 3 0 -141z"/>
</g>
</svg>
